<svg width="361" height="424" viewBox="0 0 361 424" fill="none" xmlns="http://www.w3.org/2000/svg">
<path d="M0 0H361V70.3043H345.898C345.898 44.2119 341.104 28.9914 331.516 24.6427H213.58V394.284C217.894 403.948 232.996 408.779 258.884 408.779V424H102.116V408.779C128.004 408.779 143.106 403.948 147.42 394.284V24.6427H29.4841C19.8957 28.9914 15.1016 44.2119 15.1016 70.3043H0V0Z" fill="white"/>
<path d="M117.996 424V411.316C139.57 411.316 152.155 407.29 155.75 399.236V195.088C130.98 193.075 118.396 192.068 117.996 192.068V178.177C125.587 178.177 140.369 173.949 162.342 165.493C184.715 156.634 200.496 152.205 209.684 152.205V178.781C229.66 161.064 249.436 152.205 269.012 152.205C286.99 152.205 301.972 155.628 313.957 162.473C326.342 169.318 332.535 176.969 332.535 185.424C332.535 199.92 324.544 207.168 308.564 207.168C300.174 207.168 292.583 201.531 285.792 190.256C279 178.579 271.209 172.741 262.42 172.741C246.839 172.741 229.261 181.398 209.684 198.712V399.236C213.28 407.29 225.865 411.316 247.438 411.316V424H117.996Z" fill="white"/>
</svg>
