<svg width="2259" height="458" viewBox="0 0 2259 458" fill="none" xmlns="http://www.w3.org/2000/svg">
<rect x="512.602" width="28.7448" height="458" fill="white"/>
<path d="M0 61.8922H284.703V117.309H272.793C272.793 96.7421 269.012 84.7446 261.45 81.3168H168.44V372.685C171.842 380.302 183.752 384.111 204.169 384.111V396.108H80.5334V384.111C100.95 384.111 112.86 380.302 116.263 372.685V81.3168H23.2526C15.6908 84.7446 11.9099 96.7421 11.9099 117.309H0V61.8922Z" fill="white"/>
<path d="M93.0577 396.108V386.11C110.072 386.11 119.997 382.937 122.832 376.589V215.67C103.298 214.083 93.3728 213.289 93.0577 213.289V202.339C99.0441 202.339 110.702 199.007 128.031 192.341C145.675 185.359 158.121 181.867 165.368 181.867V202.815C181.121 188.85 196.718 181.867 212.156 181.867C226.335 181.867 238.15 184.565 247.602 189.961C257.37 195.357 262.254 201.387 262.254 208.052C262.254 219.478 255.952 225.192 243.349 225.192C236.732 225.192 230.746 220.748 225.39 211.861C220.033 202.657 213.889 198.054 206.958 198.054C194.67 198.054 180.806 204.878 165.368 218.526V376.589C168.203 382.937 178.128 386.11 195.142 386.11V396.108H93.0577Z" fill="white"/>
<path d="M864.683 99.3876C868.283 109.721 871.884 119.935 875.484 130.029C879.084 140.122 882.564 150.576 885.924 161.391C884.004 161.871 882.204 162.472 880.524 163.193C879.084 163.914 877.404 164.515 875.484 164.995C870.924 154.902 866.483 146.731 862.163 140.483C858.083 133.994 854.003 128.827 849.923 124.982C844.643 120.175 838.402 116.931 831.202 115.249C824.002 113.567 816.921 112.725 809.961 112.725C796.041 112.725 786.92 113.807 782.6 115.97C777.8 118.133 775.4 122.458 775.4 128.947V320.363C775.4 327.332 778.04 332.259 783.32 335.143C788.12 337.786 798.561 339.108 814.641 339.108V350.644H713.117V339.108C727.518 339.108 737.238 337.907 742.278 335.503C748.999 332.379 752.359 327.332 752.359 320.363V126.063C752.359 121.017 750.439 117.532 746.599 115.609C742.998 113.687 735.678 112.725 724.638 112.725C716.237 112.725 707.597 113.446 698.717 114.888C690.076 116.33 682.636 119.695 676.396 124.982C673.756 127.145 671.236 129.788 668.836 132.912C666.435 135.796 663.675 139.641 660.555 144.448C658.635 147.572 656.835 150.696 655.155 153.82C653.475 156.704 651.675 159.828 649.755 163.193C648.315 162.472 646.875 161.871 645.435 161.391C644.235 160.67 642.915 159.949 641.474 159.228C645.075 149.134 648.675 139.161 652.275 129.308C655.875 119.454 659.475 109.481 663.075 99.3876H864.683Z" fill="white"/>
<path d="M1114.98 350.644H1068.18C1057.14 330.216 1046.1 310.149 1035.06 290.443C1024.02 270.496 1012.98 250.309 1001.94 229.882H954.774V316.398C954.774 325.049 956.934 330.937 961.254 334.061C966.774 337.426 975.535 339.108 987.535 339.108V350.644H898.612V339.108C911.812 339.108 920.813 337.426 925.613 334.061C929.933 330.457 932.093 324.689 932.093 316.758V132.191C932.093 125.462 929.813 120.416 925.253 117.051C920.693 113.446 911.812 111.644 898.612 111.644V99.3876H1009.5C1064.46 99.3876 1091.94 120.896 1091.94 163.914C1091.94 179.294 1088.22 192.152 1080.78 202.485C1069.74 217.145 1051.62 225.917 1026.42 228.801C1035.54 244.902 1044.54 260.884 1053.42 276.745C1062.3 292.606 1071.3 308.587 1080.42 324.689C1083.54 329.976 1087.62 333.701 1092.66 335.864C1097.94 338.027 1105.38 339.108 1114.98 339.108V350.644ZM1067.46 163.193C1067.46 147.572 1062.3 135.316 1051.98 126.424C1041.42 117.292 1027.38 112.725 1009.86 112.725H978.175C969.295 112.725 963.294 114.167 960.174 117.051C956.574 120.416 954.774 125.342 954.774 131.831V215.823H1014.18C1029.78 215.823 1042.5 211.137 1052.34 201.765C1062.42 191.671 1067.46 178.814 1067.46 163.193Z" fill="white"/>
<path d="M1222.83 350.644H1137.87V339.108C1149.63 339.108 1157.79 337.546 1162.35 334.422C1166.43 331.538 1168.47 326.732 1168.47 320.003V132.191C1168.47 124.501 1166.43 118.974 1162.35 115.609C1157.55 112.245 1149.39 110.563 1137.87 110.563V99.3876H1222.83V110.563C1218.51 110.563 1214.67 110.923 1211.31 111.644C1208.19 112.125 1205.43 112.725 1203.03 113.446C1198.47 115.129 1195.47 117.532 1194.03 120.656C1192.59 123.54 1191.87 127.385 1191.87 132.191V320.003C1191.87 327.212 1193.67 332.019 1197.27 334.422C1202.07 337.546 1210.59 339.108 1222.83 339.108V350.644Z" fill="white"/>
<path d="M1489.66 111.283C1476.94 111.283 1468.3 112.846 1463.74 115.97C1460.14 118.613 1458.34 123.42 1458.34 130.389V272.059C1458.34 295.37 1452.34 314.475 1440.33 329.375C1424.97 347.64 1400.13 356.772 1365.81 356.772C1340.13 356.772 1319.25 349.322 1303.17 334.422C1286.13 318.08 1277.61 296.091 1277.61 268.454V130.75C1277.61 123.54 1275.45 118.613 1271.13 115.97C1266.57 112.846 1257.57 111.283 1244.13 111.283V99.3876H1334.13V111.283C1320.45 111.283 1311.33 112.846 1306.77 115.97C1303.17 118.613 1301.37 123.54 1301.37 130.75V270.617C1301.37 293.207 1307.97 310.75 1321.17 323.247C1334.13 335.503 1351.89 341.632 1374.45 341.632C1391.49 341.632 1405.77 336.945 1417.29 327.573C1434.57 314.595 1443.21 295.73 1443.21 270.977V130.389C1443.21 123.66 1441.17 118.854 1437.09 115.97C1432.53 112.846 1423.89 111.283 1411.17 111.283V99.3876H1489.66V111.283Z" fill="white"/>
<path d="M1784.48 350.644H1698.79V339.108C1712.47 339.108 1721.59 337.186 1726.16 333.341C1730 329.736 1731.92 324.449 1731.92 317.479V122.458C1716.79 161.391 1701.91 199.842 1687.27 237.813C1672.87 275.543 1658.35 313.874 1643.71 352.807H1632.55C1618.15 314.595 1604.11 276.745 1590.43 239.255C1576.75 201.524 1562.71 163.433 1548.31 124.982V317.479C1548.31 325.41 1550.35 331.057 1554.43 334.422C1559.23 337.546 1567.51 339.108 1579.27 339.108V350.644H1505.47V339.108C1517.23 339.108 1524.91 337.786 1528.51 335.143C1532.35 332.259 1534.27 327.813 1534.27 321.805V130.75C1534.27 123.78 1532.35 118.854 1528.51 115.97C1524.67 112.846 1517.11 111.283 1505.83 111.283V99.3876H1565.59C1578.55 134.955 1591.51 170.042 1604.47 204.648C1617.67 239.255 1630.75 274.462 1643.71 310.27C1656.67 274.462 1669.63 239.255 1682.59 204.648C1695.79 170.042 1708.87 134.955 1721.83 99.3876H1784.48V111.283C1770.56 111.283 1762.04 112.846 1758.92 115.97C1756.28 119.334 1754.96 123.9 1754.96 129.668V317.479C1754.96 324.929 1756.52 330.216 1759.64 333.341C1764.2 337.186 1772.48 339.108 1784.48 339.108V350.644Z" fill="white"/>
<path d="M2000.46 164.995C2000.46 186.144 1993.38 203.206 1979.22 216.184C1964.82 229.161 1945.98 235.65 1922.7 235.65H1860.06V316.037C1860.06 324.689 1862.1 330.697 1866.18 334.061C1871.7 337.426 1881.42 339.108 1895.34 339.108V350.644H1803.9V339.108C1816.38 339.108 1825.38 337.426 1830.9 334.061C1834.98 330.697 1837.02 324.689 1837.02 316.037V132.191C1837.02 129.067 1836.54 126.664 1835.58 124.982C1834.38 121.858 1832.82 119.334 1830.9 117.412C1826.34 113.567 1817.34 111.644 1803.9 111.644V99.3876H1925.22C1946.34 99.3876 1964.1 105.155 1978.5 116.691C1993.14 128.466 2000.46 144.568 2000.46 164.995ZM1975.62 164.995C1975.62 149.134 1969.98 136.277 1958.7 126.424C1947.42 117.292 1933.98 112.725 1918.38 112.725H1894.62C1892.7 112.725 1890.66 112.846 1888.5 113.086C1886.58 113.086 1884.66 113.086 1882.74 113.086C1877.46 113.086 1872.78 113.687 1868.7 114.888C1865.34 116.09 1863.06 118.133 1861.86 121.017C1860.66 123.66 1860.06 127.265 1860.06 131.831V221.591H1918.02C1926.9 221.591 1934.82 220.269 1941.78 217.626C1948.98 214.742 1955.1 210.897 1960.14 206.09C1970.46 195.756 1975.62 182.058 1975.62 164.995Z" fill="white"/>
<path d="M2258.85 351.004H2175.68V339.108C2186 339.108 2193.44 337.546 2198 334.422C2202.32 331.298 2204.48 326.011 2204.48 318.561V223.754H2076.32V318.561C2076.32 326.491 2078 331.778 2081.36 334.422C2085.92 337.546 2094.08 339.108 2105.84 339.108V351.004H2023.04V339.108C2035.76 339.108 2044.28 337.306 2048.6 333.701C2051.72 330.577 2053.28 325.53 2053.28 318.561V130.029C2053.28 123.059 2051.6 118.253 2048.24 115.609C2043.68 112.245 2035.52 110.563 2023.76 110.563V99.0271H2104.76V110.563C2093.24 110.563 2085.56 112.245 2081.72 115.609C2078.12 118.493 2076.32 123.3 2076.32 130.029V210.416H2204.48V130.029C2204.48 123.3 2202.32 118.493 2198 115.609C2193.44 112.245 2185.88 110.563 2175.32 110.563V99.0271H2257.05V110.563C2245.53 110.563 2237.49 112.245 2232.93 115.609C2229.57 118.253 2227.89 123.059 2227.89 130.029V318.561C2227.89 326.491 2229.57 331.778 2232.93 334.422C2237.49 337.546 2246.13 339.108 2258.85 339.108V351.004Z" fill="white"/>
</svg>
